<?xml version="1.0" standalone="no"?><!DOCTYPE svg PUBLIC "-//W3C//DTD SVG 1.1//EN" "http://www.w3.org/Graphics/SVG/1.1/DTD/svg11.dtd" ><svg xmlns="http://www.w3.org/2000/svg"><metadata>Generated by Glyphter</metadata><defs><font id="abovethefray-icons" horiz-adv-x="0"><font-face units-per-em="1024" ascent="1024" descent="0" font-family="abovethefray-icons" font-weight="normal" /><missing-glyph horiz-adv-x="0" /><glyph unicode="&#x0041;" d="M512,1024C794.624,1024,1024,794.624,1024,512C1024,229.376,794.624,0,512,0C229.376,0,0,229.376,0,512C0,794.624,229.376,1024,512,1024C512,1024,512,1024,512,1024M512,281.6C415.744,281.6,281.6,236.544,259.584,190.464C329.216,135.168,416.768,102.4,512,102.4C607.232,102.4,694.784,135.168,764.416,190.464C742.912,236.544,608.256,281.6,512,281.6C512,281.6,512,281.6,512,281.6M512,921.6C286.208,921.6,102.4,737.792,102.4,512C102.4,418.816,134.144,333.312,186.368,264.704C259.584,353.792,437.248,384,512,384C586.752,384,764.416,353.792,837.632,264.704C889.856,333.312,921.6,418.816,921.6,512C921.6,737.792,737.792,921.6,512,921.6C512,921.6,512,921.6,512,921.6M512,819.2C611.328,819.2,691.2,739.328,691.2,640C691.2,540.672,611.328,460.8,512,460.8C412.672,460.8,332.8,540.672,332.8,640C332.8,739.328,412.672,819.2,512,819.2C512,819.2,512,819.2,512,819.2M512,716.8C469.504,716.8,435.2,682.496,435.2,640C435.2,597.504,469.504,563.2,512,563.2C554.496,563.2,588.8,597.504,588.8,640C588.8,682.496,554.496,716.8,512,716.8C512,716.8,512,716.8,512,716.8" class="atf-icon-account"/><glyph unicode="&#x0042;" d="M420.73,717.587C420.73,717.587,420.73,27.412,420.73,27.412C420.73,12.291,433.022,0,448.142,0C448.142,0,576.148,0,576.148,0C591.32,0,603.611,12.291,603.611,27.412C603.611,27.412,603.611,717.587,603.611,717.587C603.611,717.587,708.886,717.587,708.886,717.587C757.744,717.587,782.224,776.679,747.664,811.239C747.664,811.239,550.948,1007.954,550.948,1007.954C529.502,1029.349,494.788,1029.349,473.393,1007.954C473.393,1007.954,276.678,811.239,276.678,811.239C242.118,776.679,266.598,717.587,315.455,717.587C315.455,717.587,420.73,717.587,420.73,717.587C420.73,717.587,420.73,717.587,420.73,717.587" class="atf-icon-arrow-up"/><glyph unicode="&#x0043;" d="M117.955,828.387C258.857,992.125,491.458,1044.297,689.55,956.643C712.027,946.71,722.114,920.547,712.13,898.275C702.094,875.952,675.778,865.917,653.301,875.85C491.253,947.581,300.943,904.88,185.641,770.941C70.339,636.951,57.488,443.62,154.102,295.806C250.665,147.941,433.654,80.818,603.842,130.789C774.03,180.76,890.817,335.947,890.92,512.126C890.92,512.126,890.92,512.126,890.92,512.126C890.92,512.126,890.92,553.239,890.92,553.239C890.92,577.662,910.887,597.476,935.463,597.476C960.039,597.476,979.956,577.662,979.956,553.239C979.956,553.239,979.956,553.239,979.956,553.239C979.956,553.239,979.956,512.126,979.956,512.126C979.854,296.728,837.108,107.033,629.083,46.002C421.11,-15.079,197.469,66.994,79.402,247.679C-38.665,428.363,-22.947,664.65,117.955,828.387C117.955,828.387,117.955,828.387,117.955,828.387M948.519,941.334C965.876,958.589,994.087,958.589,1011.444,941.334C1028.852,924.08,1028.852,896.074,1011.444,878.819C1011.444,878.819,1011.444,878.819,1011.444,878.819C1011.444,878.819,521.717,392.421,521.717,392.421C504.309,375.166,476.149,375.166,458.741,392.421C458.741,392.421,458.741,392.421,458.741,392.421C458.741,392.421,325.212,525.079,325.212,525.079C307.804,542.334,307.804,570.34,325.212,587.595C342.569,604.9,370.78,604.9,388.137,587.595C388.137,587.595,388.137,587.595,388.137,587.595C388.137,587.595,490.229,486.219,490.229,486.219C490.229,486.219,948.519,941.334,948.519,941.334" class="atf-icon-checkmark-circle"/><glyph unicode="&#x0044;" d="M1011.353,744.111C1011.353,744.111,396.351,140.782,396.351,140.782C379.609,124.296,352.525,124.449,335.885,140.987C335.885,140.987,12.41,463.54,12.41,463.54C-4.23,480.077,-4.128,506.855,12.666,523.341C12.666,523.341,93.611,602.75,93.611,602.75C110.405,619.185,137.438,619.083,154.077,602.494C154.077,602.494,367.168,390.07,367.168,390.07C367.168,390.07,870.812,884.242,870.812,884.242C887.605,900.677,914.638,900.575,931.278,883.986C931.278,883.986,1011.609,803.911,1011.609,803.911C1028.249,787.323,1028.095,760.546,1011.353,744.111C1011.353,744.111,1011.353,744.111,1011.353,744.111" class="atf-icon-checkmark"/><glyph unicode="&#x0045;" d="M512.5,400.475C512.5,400.475,125.367,773.118,125.367,773.118C96.797,800.613,50.46,800.613,21.889,773.118C-6.63,745.623,-6.63,701.027,21.889,673.532C21.889,673.532,460.787,251.121,460.787,251.121C489.357,223.626,535.643,223.626,564.213,251.121C564.213,251.121,1003.111,673.532,1003.111,673.532C1031.63,701.027,1031.63,745.623,1003.111,773.118C974.54,800.613,928.203,800.613,899.633,773.118C899.633,773.118,512.5,400.475,512.5,400.475C512.5,400.475,512.5,400.475,512.5,400.475" class="atf-Icon-chevron-down"/><glyph unicode="&#x0046;" d="M400.856,512.12C400.856,512.12,773.498,899.252,773.498,899.252C800.993,927.822,800.993,974.159,773.498,1002.73C746.003,1031.249,701.407,1031.249,673.912,1002.73C673.912,1002.73,251.502,563.833,251.502,563.833C224.007,535.263,224.007,488.977,251.502,460.407C251.502,460.407,673.912,21.509,673.912,21.509C701.407,-7.01,746.003,-7.01,773.498,21.509C800.993,50.08,800.993,96.417,773.498,124.987C773.498,124.987,400.856,512.12,400.856,512.12C400.856,512.12,400.856,512.12,400.856,512.12" class="atf-Icon-chevron-left"/><glyph unicode="&#x0047;" d="M624.144,512.12C624.144,512.12,251.502,124.987,251.502,124.987C224.007,96.417,224.007,50.08,251.502,21.509C278.997,-7.01,323.593,-7.01,351.088,21.509C351.088,21.509,773.498,460.407,773.498,460.407C800.993,488.977,800.993,535.263,773.498,563.833C773.498,563.833,351.088,1002.73,351.088,1002.73C323.593,1031.249,278.997,1031.249,251.502,1002.73C224.007,974.159,224.007,927.822,251.502,899.252C251.502,899.252,624.144,512.12,624.144,512.12C624.144,512.12,624.144,512.12,624.144,512.12" class="atf-Icon-chevron-right"/><glyph unicode="&#x0048;" d="M512.5,623.764C512.5,623.764,899.633,251.121,899.633,251.121C928.203,223.626,974.54,223.626,1003.111,251.121C1031.63,278.616,1031.63,323.212,1003.111,350.707C1003.111,350.707,564.213,773.118,564.213,773.118C535.643,800.613,489.357,800.613,460.787,773.118C460.787,773.118,21.889,350.707,21.889,350.707C-6.63,323.212,-6.63,278.616,21.889,251.121C50.46,223.626,96.797,223.626,125.367,251.121C125.367,251.121,512.5,623.764,512.5,623.764C512.5,623.764,512.5,623.764,512.5,623.764" class="atf-icon-chevron-up"/><glyph unicode="&#x0049;" d="M863.201,717.677C863.201,717.677,742.586,717.677,742.586,717.677C742.586,717.677,742.586,807.076,742.586,807.076C742.586,807.076,168.619,807.076,168.619,807.076C168.619,807.076,168.619,695.056,168.619,695.056C168.619,695.056,0,695.056,0,695.056C0,695.056,0,657.696,0,657.696C0,657.696,168.619,657.696,168.619,657.696C168.619,657.696,168.619,581.889,168.619,581.889C168.619,581.889,30.161,581.889,30.161,581.889C30.161,581.889,30.161,544.528,30.161,544.528C30.161,544.528,168.619,544.528,168.619,544.528C168.619,544.528,168.619,468.721,168.619,468.721C168.619,468.721,56.941,468.721,56.941,468.721C56.941,468.721,56.941,431.392,56.941,431.392C56.941,431.392,168.619,431.392,168.619,431.392C168.619,431.392,168.619,288.808,168.619,288.808C168.619,288.808,275.828,288.808,275.828,288.808C281.414,248.065,316.013,217.5,357.345,217.5C398.646,217.5,433.276,248.065,438.862,288.808C438.862,288.808,706.87,288.808,706.87,288.808C706.87,288.808,743.703,288.808,743.703,288.808C743.703,288.808,774.982,288.808,774.982,288.808C780.567,248.065,815.197,217.5,856.498,217.5C897.831,217.5,932.43,248.065,938.015,288.808C938.015,288.808,1024,288.808,1024,288.808C1024,288.808,1024,534.35,1024,534.35C1021.766,645.253,959.24,717.677,863.201,717.677C863.201,717.677,863.201,717.677,863.201,717.677M356.228,253.712C331.652,253.712,311.544,274.068,311.544,298.986C311.544,323.872,331.652,344.228,356.228,344.228C380.804,344.228,400.88,323.872,400.88,298.986C400.88,274.068,380.804,253.712,356.228,253.712C356.228,253.712,356.228,253.712,356.228,253.712M704.636,324.989C704.636,324.989,434.393,324.989,434.393,324.989C423.222,357.819,393.092,382.705,356.228,382.705C320.481,382.705,289.233,358.967,278.063,324.989C278.063,324.989,204.366,324.989,204.366,324.989C204.366,324.989,204.366,768.598,204.366,768.598C204.366,768.598,704.636,768.598,704.636,768.598C704.636,768.598,704.636,717.677,704.636,717.677C704.636,717.677,704.636,324.989,704.636,324.989C704.636,324.989,704.636,324.989,704.636,324.989C704.636,324.989,704.636,324.989,704.636,324.989M854.264,253.712C829.688,253.712,809.612,274.068,809.612,298.986C809.612,323.872,829.688,344.228,854.264,344.228C878.84,344.228,898.948,323.872,898.948,298.986C898.948,274.068,878.84,253.712,854.264,253.712C854.264,253.712,854.264,253.712,854.264,253.712M983.816,324.989C983.816,324.989,932.43,324.989,932.43,324.989C921.259,357.819,891.128,382.705,854.264,382.705C817.431,382.705,787.27,358.967,776.099,324.989C776.099,324.989,741.469,324.989,741.469,324.989C741.469,324.989,741.469,680.348,741.469,680.348C741.469,680.348,862.084,680.348,862.084,680.348C936.898,680.348,982.699,623.749,982.699,533.233C982.699,533.233,982.699,324.989,982.699,324.989C982.699,324.989,983.816,324.989,983.816,324.989C983.816,324.989,983.816,324.989,983.816,324.989" class="atf-icon-free-shipping"/><glyph unicode="&#x004a;" d="M102.399,286C102.399,286,102.399,102.399,102.399,102.399C102.399,102.399,286,102.399,286,102.399C286,102.399,900.392,716.791,900.392,716.791C900.392,716.791,716.791,900.392,716.791,900.392C716.791,900.392,102.399,286,102.399,286C102.399,286,102.399,286,102.399,286M752.989,1008.986C752.989,1008.986,1008.986,752.989,1008.986,752.989C1029.005,733.021,1029.005,700.612,1008.986,680.593C1008.986,680.593,343.394,15.001,343.394,15.001C333.82,5.427,320.764,0,307.196,0C307.196,0,51.199,0,51.199,0C22.937,0,0,22.937,0,51.199C0,51.199,0,307.196,0,307.196C0,320.764,5.376,333.82,15.001,343.394C15.001,343.394,680.593,1008.986,680.593,1008.986C700.561,1029.005,733.021,1029.005,752.989,1008.986C752.989,1008.986,752.989,1008.986,752.989,1008.986" class="atf-icon-edit"/><glyph unicode="&#x004b;" d="M460.8,870.4C489.062,870.4,512,847.462,512,819.2C512,790.938,489.062,768,460.8,768C460.8,768,460.8,768,460.8,768C460.8,768,153.6,768,153.6,768C125.338,768,102.4,745.062,102.4,716.8C102.4,716.8,102.4,716.8,102.4,716.8C102.4,716.8,102.4,153.6,102.4,153.6C102.4,125.338,125.338,102.4,153.6,102.4C153.6,102.4,153.6,102.4,153.6,102.4C153.6,102.4,716.8,102.4,716.8,102.4C745.062,102.4,768,125.338,768,153.6C768,153.6,768,153.6,768,153.6C768,153.6,768,460.8,768,460.8C768,489.062,790.938,512,819.2,512C847.462,512,870.4,489.062,870.4,460.8C870.4,460.8,870.4,460.8,870.4,460.8C870.4,460.8,870.4,153.6,870.4,153.6C870.4,68.762,801.638,0,716.8,0C716.8,0,716.8,0,716.8,0C716.8,0,153.6,0,153.6,0C68.762,0,0,68.762,0,153.6C0,153.6,0,153.6,0,153.6C0,153.6,0,716.8,0,716.8C0,801.638,68.762,870.4,153.6,870.4C153.6,870.4,153.6,870.4,153.6,870.4C153.6,870.4,460.8,870.4,460.8,870.4M972.8,1024C973.107,1024,973.466,1024,973.773,1024C975.002,1023.949,976.179,1023.898,977.357,1023.795C978.432,1023.693,979.405,1023.59,980.429,1023.437C981.299,1023.283,982.17,1023.13,983.091,1022.976C984.218,1022.72,985.293,1022.464,986.419,1022.157C987.187,1021.952,988.006,1021.696,988.774,1021.44C989.798,1021.133,990.822,1020.774,991.795,1020.365C992.717,1020.006,993.587,1019.597,994.458,1019.187C995.533,1018.726,996.557,1018.163,997.581,1017.6C998.195,1017.293,998.861,1016.883,999.475,1016.525C1000.755,1015.706,1002.035,1014.886,1003.264,1013.965C1005.261,1012.48,1007.206,1010.842,1008.998,1008.998C1008.998,1008.998,1004.39,1013.094,1004.39,1013.094C1007.616,1010.534,1010.534,1007.616,1013.094,1004.39C1013.402,1004.032,1013.658,1003.674,1013.965,1003.264C1014.886,1002.035,1015.706,1000.755,1016.525,999.475C1016.883,998.861,1017.293,998.195,1017.6,997.581C1018.163,996.557,1018.726,995.533,1019.187,994.458C1019.597,993.587,1020.006,992.717,1020.365,991.795C1020.774,990.822,1021.133,989.798,1021.44,988.774C1021.696,988.006,1021.952,987.187,1022.157,986.419C1022.464,985.293,1022.72,984.218,1022.976,983.091C1023.13,982.17,1023.283,981.299,1023.437,980.378C1023.795,977.92,1024,975.411,1024,972.8C1024,972.8,1023.795,977.203,1023.795,977.203C1023.898,976.282,1023.949,975.36,1023.949,974.438C1023.949,974.438,1024,972.8,1024,972.8C1024,972.8,1024,665.6,1024,665.6C1024,637.338,1001.062,614.4,972.8,614.4C944.538,614.4,921.6,637.338,921.6,665.6C921.6,665.6,921.6,665.6,921.6,665.6C921.6,665.6,921.6,849.203,921.6,849.203C921.6,849.203,445.798,373.402,445.798,373.402C427.366,354.918,398.285,353.536,378.214,369.152C378.214,369.152,373.402,373.402,373.402,373.402C353.382,393.37,353.382,425.83,373.402,445.798C373.402,445.798,373.402,445.798,373.402,445.798C373.402,445.798,849.101,921.6,849.101,921.6C849.101,921.6,665.6,921.6,665.6,921.6C639.334,921.6,617.677,941.363,614.758,966.81C614.758,966.81,614.4,972.8,614.4,972.8C614.4,1001.062,637.338,1024,665.6,1024C665.6,1024,665.6,1024,665.6,1024C665.6,1024,972.8,1024,972.8,1024" class="atf-icon-external-link"/><glyph unicode="&#x004c;" d="M741.15,764.984C781.212,776.643,823.329,753.53,834.988,713.417C834.988,713.417,834.988,713.417,834.988,713.417C834.988,713.417,950.397,316.29,950.397,316.29C962.056,276.228,938.943,234.111,898.881,222.452C898.881,222.452,898.881,222.452,898.881,222.452C898.881,222.452,226.559,27.022,226.559,27.022C186.497,15.363,144.432,38.475,132.773,78.589C132.773,78.589,132.773,78.589,132.773,78.589C132.773,78.589,17.313,475.716,17.313,475.716C5.653,515.778,28.766,557.894,68.828,569.553C68.828,569.553,68.828,569.553,68.828,569.553C68.828,569.553,741.15,764.984,741.15,764.984M253.319,378.232C253.319,378.232,92.968,331.647,92.968,331.647C92.968,331.647,163.898,87.628,163.898,87.628C170.575,64.721,194.612,51.521,217.52,58.147C217.52,58.147,217.52,58.147,217.52,58.147C217.52,58.147,381.055,105.707,381.055,105.707C381.055,105.707,312.076,342.946,312.076,342.946C290.864,271.708,267.751,205.195,267.751,205.195C267.751,205.195,267.751,205.195,267.751,205.195C267.751,205.195,219.369,293.228,219.369,293.228C234.469,326.511,245.409,354.657,253.319,378.232C253.319,378.232,253.319,378.232,253.319,378.232C253.319,378.232,253.319,378.232,253.319,378.232M848.342,551.217C848.342,551.217,432.519,430.363,432.519,430.363C453.372,414.082,479.412,395.232,511.77,373.763C511.77,373.763,511.77,373.763,511.77,373.763C511.77,373.763,530.568,275.046,530.568,275.046C530.568,275.046,473.608,315.776,413.926,361.642C413.926,361.642,397.644,374.277,397.644,374.277C389.478,380.594,381.363,386.963,373.453,393.332C373.453,393.332,373.453,393.332,373.453,393.332C373.453,393.332,451.112,126.098,451.112,126.098C451.112,126.098,889.79,253.629,889.79,253.629C912.698,260.254,925.949,284.343,919.272,307.25C919.272,307.25,919.272,307.25,919.272,307.25C919.272,307.25,848.342,551.217,848.342,551.217C848.342,551.217,848.342,551.217,848.342,551.217M241.454,585.937C241.454,585.937,77.919,538.377,77.919,538.377C55.012,531.7,41.761,507.663,48.438,484.755C48.438,484.755,48.438,484.755,48.438,484.755C48.438,484.755,72.578,401.704,72.578,401.704C72.578,401.704,172.116,430.62,172.116,430.62C165.953,444.642,160.303,459.588,156.964,473.199C156.964,473.199,215.362,512.953,263.591,509.717C263.591,509.717,263.591,509.717,263.591,509.717C263.591,509.717,241.454,585.937,241.454,585.937C241.454,585.937,241.454,585.937,241.454,585.937M803.811,704.377C797.134,727.284,773.097,740.484,750.19,733.859C750.19,733.859,750.19,733.859,750.19,733.859C750.19,733.859,311.511,606.277,311.511,606.277C311.511,606.277,332.364,534.627,332.364,534.627C364.208,572.018,435.909,587.581,435.909,587.581C449.006,566.42,459.381,536.836,465.75,515.983C465.75,515.983,465.75,515.983,465.75,515.983C465.75,515.983,827.951,621.326,827.951,621.326C827.951,621.326,803.811,704.377,803.811,704.377M42.839,763.237C42.839,763.237,106.322,719.683,106.322,719.683C118.597,711.208,121.73,694.413,113.307,682.086C108.017,674.433,99.594,670.376,90.965,670.376C85.675,670.376,80.384,671.865,75.711,675.101C75.711,675.101,12.228,718.656,12.228,718.656C-0.099,727.13,-3.181,743.977,5.243,756.252C13.717,768.579,30.512,771.712,42.839,763.237C42.839,763.237,42.839,763.237,42.839,763.237M1019.735,756.252C1028.21,743.977,1025.076,727.13,1012.75,718.656C1012.75,718.656,949.318,675.101,949.318,675.101C944.644,671.917,939.303,670.376,934.013,670.376C925.435,670.376,916.961,674.433,911.722,682.086C903.247,694.413,906.38,711.208,918.707,719.683C918.707,719.683,982.19,763.237,982.19,763.237C994.465,771.712,1011.312,768.579,1019.735,756.252C1019.735,756.252,1019.735,756.252,1019.735,756.252M207.401,939.048C207.401,939.048,275.558,838.893,275.558,838.893C283.93,826.566,280.746,809.771,268.419,801.348C263.745,798.163,258.455,796.674,253.216,796.674C244.587,796.674,236.061,800.783,230.874,808.487C230.874,808.487,162.717,908.642,162.717,908.642C154.294,920.968,157.478,937.764,169.856,946.187C182.183,954.559,199.03,951.374,207.401,939.048C207.401,939.048,207.401,939.048,207.401,939.048M855.173,946.187C867.499,937.764,870.684,920.968,862.312,908.642C862.312,908.642,794.155,808.487,794.155,808.487C788.916,800.783,780.442,796.674,771.762,796.674C766.523,796.674,761.232,798.163,756.61,801.348C744.232,809.771,741.047,826.566,749.471,838.893C749.471,838.893,817.576,939.048,817.576,939.048C825.999,951.374,842.795,954.559,855.173,946.187C855.173,946.187,855.173,946.187,855.173,946.187M510.897,1000.887C525.791,1000.887,537.913,988.766,537.913,973.819C537.913,973.819,537.913,873.819,537.913,873.819C537.913,858.872,525.791,846.802,510.897,846.802C495.95,846.802,483.88,858.872,483.88,873.819C483.88,873.819,483.88,973.819,483.88,973.819C483.88,988.766,495.95,1000.887,510.897,1000.887C510.897,1000.887,510.897,1000.887,510.897,1000.887" class="atf-icon-gift-card"/><glyph unicode="&#x004d;" d="M281.6,281.6C281.6,281.6,281.6,0,281.6,0C281.6,0,0,0,0,0C0,0,0,281.6,0,281.6C0,281.6,281.6,281.6,281.6,281.6C281.6,281.6,281.6,281.6,281.6,281.6M652.8,281.6C652.8,281.6,652.8,0,652.8,0C652.8,0,371.2,0,371.2,0C371.2,0,371.2,281.6,371.2,281.6C371.2,281.6,652.8,281.6,652.8,281.6C652.8,281.6,652.8,281.6,652.8,281.6M1024,281.6C1024,281.6,1024,0,1024,0C1024,0,742.4,0,742.4,0C742.4,0,742.4,281.6,742.4,281.6C742.4,281.6,1024,281.6,1024,281.6C1024,281.6,1024,281.6,1024,281.6M281.6,652.8C281.6,652.8,281.6,371.2,281.6,371.2C281.6,371.2,0,371.2,0,371.2C0,371.2,0,652.8,0,652.8C0,652.8,281.6,652.8,281.6,652.8C281.6,652.8,281.6,652.8,281.6,652.8M652.8,652.8C652.8,652.8,652.8,371.2,652.8,371.2C652.8,371.2,371.2,371.2,371.2,371.2C371.2,371.2,371.2,652.8,371.2,652.8C371.2,652.8,652.8,652.8,652.8,652.8C652.8,652.8,652.8,652.8,652.8,652.8M1024,652.8C1024,652.8,1024,371.2,1024,371.2C1024,371.2,742.4,371.2,742.4,371.2C742.4,371.2,742.4,652.8,742.4,652.8C742.4,652.8,1024,652.8,1024,652.8C1024,652.8,1024,652.8,1024,652.8M281.6,1024C281.6,1024,281.6,742.4,281.6,742.4C281.6,742.4,0,742.4,0,742.4C0,742.4,0,1024,0,1024C0,1024,281.6,1024,281.6,1024C281.6,1024,281.6,1024,281.6,1024M652.8,1024C652.8,1024,652.8,742.4,652.8,742.4C652.8,742.4,371.2,742.4,371.2,742.4C371.2,742.4,371.2,1024,371.2,1024C371.2,1024,652.8,1024,652.8,1024C652.8,1024,652.8,1024,652.8,1024M1024,1024C1024,1024,1024,742.4,1024,742.4C1024,742.4,742.4,742.4,742.4,742.4C742.4,742.4,742.4,1024,742.4,1024C742.4,1024,1024,1024,1024,1024C1024,1024,1024,1024,1024,1024" class="atf-icon-grid"/><glyph unicode="&#x004e;" d="M686.598,774.153C686.859,774.674,687.184,774.935,687.184,775.196C687.249,784.77,687.315,794.345,687.315,803.919C687.054,847.559,672.399,885.922,642.894,919.01C579.193,990.461,464.884,995.542,394.866,929.887C360.801,897.907,342.434,858.827,340.024,812.908C339.307,800.142,339.894,787.245,339.894,774.153C339.894,774.153,686.598,774.153,686.598,774.153C686.598,774.153,686.598,774.153,686.598,774.153M339.698,721.786C339.698,721.786,339.698,699.706,339.698,699.706C339.698,639.718,339.763,579.731,339.633,519.808C339.633,496.164,322.633,480.598,299.25,486.785C283.814,490.889,285.247,503.915,285.247,520.85C285.182,580.642,285.247,640.5,285.247,700.292C285.247,700.292,285.247,721.786,285.247,721.786C285.247,721.786,145.666,721.786,145.666,721.786C145.666,721.786,145.666,700.227,145.666,700.227C145.666,497.337,145.666,294.447,145.666,91.556C145.666,76.25,167.095,55.538,182.857,55.538C403.203,55.538,623.614,55.538,844.025,55.538C859.788,55.538,879.783,76.25,879.783,91.426C879.783,294.512,879.783,497.402,879.783,700.553C879.783,702.246,879.653,719.963,879.523,721.786C879.523,721.786,740.724,721.786,740.724,721.786C740.724,721.786,740.724,700.423,740.724,700.423C740.724,683.944,740.724,667.465,740.724,650.986C740.724,607.282,740.789,563.643,740.659,520.003C740.594,496.23,735.513,480.467,712.065,486.85C696.954,490.954,687.315,503.72,687.315,520.134C687.249,580.121,687.315,640.109,687.315,700.097C687.315,700.097,687.315,721.786,687.315,721.786C687.315,721.786,339.698,721.786,339.698,721.786C339.698,721.786,339.698,721.786,339.698,721.786M285.247,772.59C285.247,783.207,285.116,793.042,285.247,802.942C285.963,872.179,310.584,920.443,352.139,959.848C384.38,990.396,441.892,1017.947,494.064,1023.419C600.948,1034.556,719.751,958.416,735.448,852.444C737.923,835.509,739.356,818.509,740.594,801.444C741.245,792.065,740.724,782.621,740.724,772.59C740.724,772.59,751.797,772.59,751.797,772.59C797.585,772.59,854.968,772.525,900.756,772.655C910.461,772.655,919.059,770.311,926.158,763.862C933.063,757.61,936.384,749.924,935.668,740.675C935.472,738.33,935.472,735.985,935.472,733.641C935.472,519.417,935.472,305.259,935.603,91.035C935.603,68.108,929.024,47.657,913.392,30.396C896.197,11.377,874.377,1.412,848.194,0.565C846.435,0.5,844.677,0.5,842.853,0.5C622.507,0.5,402.096,0.5,181.685,0.5C148.011,0.5,121.697,13.852,103.069,41.013C93.95,54.235,89.782,69.151,89.065,84.978C89,86.541,89,88.104,89,89.667C89,305.259,89,520.915,89,736.506C89,753.506,97.467,766.142,112.448,770.701C117.007,772.069,121.957,772.525,126.777,772.525C172.306,772.655,233.27,772.59,278.798,772.59C278.798,772.59,285.247,772.59,285.247,772.59C285.247,772.59,285.247,772.59,285.247,772.59" class="atf-icon-shopping-bag"/><glyph unicode="&#x004f;" d="M972.8,256.4C1001.062,256.4,1024,233.462,1024,205.2C1024,176.938,1001.062,154,972.8,154C972.8,154,51.2,154,51.2,154C22.938,154,0,176.938,0,205.2C0,233.462,22.938,256.4,51.2,256.4C51.2,256.4,972.8,256.4,972.8,256.4C972.8,256.4,972.8,256.4,972.8,256.4M972.8,563.6C1001.062,563.6,1024,540.662,1024,512.4C1024,484.138,1001.062,461.2,972.8,461.2C972.8,461.2,51.2,461.2,51.2,461.2C22.938,461.2,0,484.138,0,512.4C0,540.662,22.938,563.6,51.2,563.6C51.2,563.6,972.8,563.6,972.8,563.6C972.8,563.6,972.8,563.6,972.8,563.6M972.8,870.8C1001.062,870.8,1024,847.862,1024,819.6C1024,791.338,1001.062,768.4,972.8,768.4C972.8,768.4,51.2,768.4,51.2,768.4C22.938,768.4,0,791.338,0,819.6C0,847.862,22.938,870.8,51.2,870.8C51.2,870.8,972.8,870.8,972.8,870.8C972.8,870.8,972.8,870.8,972.8,870.8" class="atf-icon-hamburger"/><glyph unicode="&#x0050;" d="M512,73.5C502.112,73.5,493.728,76.924,486.848,83.772C486.848,83.772,130.272,427.772,130.272,427.772C126.464,430.812,121.216,435.772,114.56,442.62C107.904,449.468,97.344,461.948,82.848,480.06C68.352,498.172,55.424,516.732,44,535.772C32.576,554.812,22.4,577.852,13.44,604.924C4.48,631.996,0,658.268,0,683.772C0,767.58,24.192,833.116,72.576,880.348C120.96,927.58,187.808,951.196,273.152,951.196C296.768,951.196,320.864,947.1,345.44,938.908C370.016,930.716,392.864,919.676,414.016,905.756C435.168,891.836,453.344,878.812,468.576,866.62C483.808,854.428,498.272,841.5,512,827.772C525.728,841.5,540.192,854.428,555.424,866.62C570.656,878.812,588.832,891.836,609.984,905.756C631.136,919.676,653.984,930.716,678.56,938.908C703.136,947.1,727.232,951.196,750.848,951.196C836.192,951.196,903.04,927.58,951.424,880.348C999.808,833.116,1024,767.58,1024,683.772C1024,599.58,980.384,513.884,893.152,426.62C893.152,426.62,537.152,83.772,537.152,83.772C530.304,76.924,521.92,73.5,512,73.5C512,73.5,512,73.5,512,73.5" class="atf-icon-heart-fill"/><glyph unicode="&#x0051;" d="M511.579,0.551C392.716,0.551,273.775,0.394,154.912,0.63C95.914,0.788,50.858,26.23,20.374,75.776C6.904,97.516,0.209,121.62,0.13,147.141C-0.106,224.493,0.051,301.923,0.051,379.274C0.051,397.943,13.048,411.412,30.535,411.333C48.022,411.176,60.625,397.864,60.625,379.038C60.625,303.104,60.468,227.171,60.625,151.316C60.783,109.883,86.776,75.225,126.319,64.197C135.456,61.598,145.145,60.259,154.597,60.259C392.874,60.101,631.151,60.101,869.428,60.18C923.622,60.18,963.321,99.486,963.321,152.891C963.4,228.51,963.321,304.207,963.4,379.826C963.4,394.319,971.198,405.504,983.88,409.679C1003.572,416.138,1023.58,402.196,1023.895,381.48C1024.131,362.103,1023.895,342.804,1023.895,323.427C1023.895,266.398,1023.974,209.369,1023.895,152.261C1023.895,77.115,972.065,15.833,896.84,2.521C888.254,1.024,879.275,0.63,870.531,0.63C750.881,0.473,631.23,0.551,511.579,0.551C511.579,0.551,511.579,0.551,511.579,0.551M484.719,296.803C484.719,296.803,484.719,305.625,484.719,305.625C484.719,534.056,484.719,762.487,484.798,990.918C484.798,1007.223,492.123,1018.645,505.357,1022.977C524.498,1029.121,544.19,1015.888,545.214,996.117C545.371,993.439,545.293,990.682,545.293,987.925C545.293,760.518,545.293,533.032,545.293,305.625C545.293,305.625,545.293,295.149,545.293,295.149C548.207,297.906,550.176,299.639,551.988,301.45C590.034,340.205,628.079,378.88,666.046,417.635C674.474,426.221,684.242,431.183,696.53,428.505C720.712,423.07,728.904,395.973,711.968,377.935C702.516,367.853,692.749,358.243,683.06,348.397C635.72,300.269,588.379,252.141,540.96,203.934C523.474,186.211,506.538,186.132,489.051,204.013C432.574,261.435,376.096,318.858,319.619,376.281C308.906,387.23,306.228,399.439,311.899,411.491C317.098,422.676,328.756,429.765,340.965,429.135C350.654,428.663,357.979,423.779,364.517,417.084C401.617,379.196,438.797,341.465,475.976,303.577C478.417,301.135,480.623,298.457,482.986,295.936C483.537,296.251,484.168,296.488,484.719,296.803C484.719,296.803,484.719,296.803,484.719,296.803" class="atf-download"/><glyph unicode="&#x0052;" d="M950.848,683.772C950.848,714.62,946.752,741.852,938.56,765.5C930.368,789.148,919.904,807.9,907.136,821.788C894.368,835.676,878.848,847.004,860.576,855.804C842.304,864.604,824.384,870.492,806.848,873.532C789.312,876.572,770.656,878.076,750.848,878.108C731.04,878.14,709.728,873.276,686.848,863.548C663.968,853.82,642.944,841.628,623.712,826.972C604.48,812.316,588,798.588,574.272,785.82C560.544,773.052,549.12,761.34,540,750.684C533.152,742.3,523.808,738.108,512,738.108C500.192,738.108,490.848,742.3,484,750.684C474.848,761.34,463.424,773.052,449.728,785.82C436.032,798.588,419.552,812.284,400.288,826.972C381.024,841.66,359.968,853.852,337.152,863.548C314.336,873.244,292.992,878.108,273.152,878.108C253.312,878.108,234.656,876.572,217.152,873.532C199.648,870.492,181.76,864.572,163.424,855.804C145.088,847.036,129.568,835.708,116.864,821.788C104.16,807.868,93.664,789.116,85.44,765.5C77.216,741.884,73.12,714.652,73.152,683.772C73.152,619.772,108.768,552.156,180,480.924C180,480.924,512,160.924,512,160.924C512,160.924,843.424,480.348,843.424,480.348C915.04,551.964,950.848,619.772,950.848,683.772C950.848,683.772,950.848,683.772,950.848,683.772M1024,683.772C1024,599.58,980.384,513.884,893.152,426.62C893.152,426.62,537.152,83.772,537.152,83.772C530.304,76.924,521.92,73.5,512,73.5C502.08,73.5,493.696,76.924,486.848,83.772C486.848,83.772,130.272,427.772,130.272,427.772C126.464,430.812,121.216,435.772,114.56,442.62C107.904,449.468,97.344,461.948,82.848,480.06C68.352,498.172,55.424,516.732,44,535.772C32.576,554.812,22.4,577.852,13.44,604.924C4.48,631.996,0,658.268,0,683.772C0,767.58,24.192,833.116,72.576,880.348C120.96,927.58,187.808,951.196,273.152,951.196C296.768,951.196,320.864,947.1,345.44,938.908C370.016,930.716,392.864,919.676,414.016,905.756C435.168,891.836,453.344,878.812,468.576,866.62C483.808,854.428,498.272,841.5,512,827.772C525.728,841.5,540.192,854.428,555.424,866.62C570.656,878.812,588.832,891.836,609.984,905.756C631.136,919.676,653.984,930.716,678.56,938.908C703.136,947.1,727.232,951.196,750.848,951.196C836.192,951.196,903.04,927.58,951.424,880.348C999.808,833.116,1024,767.58,1024,683.772C1024,683.772,1024,683.772,1024,683.772" class="atf-icon-heart-stroke"/><glyph unicode="&#x0054;" d="M809.905,957.405C875.3,957.405,927.989,907.928,927.989,846.582C927.989,785.235,875.3,735.805,809.905,735.805C744.509,735.805,691.82,785.235,691.82,846.582C689.679,907.928,744.509,957.405,809.905,957.405C809.905,957.405,809.905,957.405,809.905,957.405M989.149,67C989.149,67,35.908,67,35.908,67C8.493,67,-8.356,92.693,4.258,116.431C4.258,116.431,345.944,759.543,345.944,759.543C358.605,783.281,396.539,783.281,409.199,759.543C409.199,759.543,611.67,379.596,611.67,379.596C624.33,355.858,662.264,355.858,674.924,379.596C674.924,379.596,744.509,510.201,744.509,510.201C757.169,533.939,795.15,533.939,807.81,510.201C807.81,510.201,1020.8,116.431,1020.8,116.431C1031.366,92.693,1014.47,67,989.149,67C989.149,67,989.149,67,989.149,67" class="atf-icon-image"/><glyph unicode="&#x0055;" d="M512,1024C794.778,1024,1024,794.778,1024,512C1024,229.222,794.778,0,512,0C229.222,0,0,229.222,0,512C0,794.778,229.222,1024,512,1024C512,1024,512,1024,512,1024M512,930.918C280.627,930.918,93.082,743.373,93.082,512C93.082,280.627,280.627,93.082,512,93.082C743.373,93.082,930.918,280.627,930.918,512C930.918,743.373,743.373,930.918,512,930.918C512,930.918,512,930.918,512,930.918M512,558.541C537.702,558.541,558.541,537.702,558.541,512C558.541,512,558.541,512,558.541,512C558.541,512,558.541,325.837,558.541,325.837C558.541,300.134,537.702,279.296,512,279.296C486.298,279.296,465.459,300.134,465.459,325.837C465.459,325.837,465.459,325.837,465.459,325.837C465.459,325.837,465.459,512,465.459,512C465.459,537.702,486.298,558.541,512,558.541C512,558.541,512,558.541,512,558.541M479.078,684.544C497.254,702.72,526.746,702.72,544.922,684.544C563.098,666.368,563.098,636.877,544.922,618.701C526.746,600.525,497.254,600.525,479.078,618.701C460.902,636.877,460.902,666.368,479.078,684.544C479.078,684.544,479.078,684.544,479.078,684.544" class="atf-icon-info"/><glyph unicode="&#x0056;" d="M512.006,1024C300.371,1024,128,851.629,128,639.994C128,565.497,147.008,509.48,185.601,452.359C185.601,452.359,479.989,17.136,479.989,17.136C487.142,6.432,499.142,0,512.006,0C524.87,0,536.87,6.432,544.023,17.136C544.023,17.136,838.411,452.359,838.411,452.359C877.004,509.48,896.012,565.497,896.012,639.994C896.012,851.629,723.641,1024,512.006,1024C512.006,1024,512.006,1024,512.006,1024C512.006,1024,512.006,1024,512.006,1024M512.006,947.199C682.121,947.199,819.211,810.109,819.211,639.994C819.211,576.921,807.499,544.137,774.426,495.176C774.426,495.176,512.006,107.138,512.006,107.138C512.006,107.138,249.586,495.176,249.586,495.176C216.513,544.137,204.801,576.921,204.801,639.994C204.801,810.109,341.891,947.199,512.006,947.199C512.006,947.199,512.006,947.199,512.006,947.199M512.006,831.997C406.404,831.997,320.003,745.548,320.003,639.994C320.003,534.392,406.404,447.991,512.006,447.991C617.608,447.991,704.009,534.392,704.009,639.994C704.009,745.548,617.608,831.997,512.006,831.997C512.006,831.997,512.006,831.997,512.006,831.997M512.006,755.196C576.087,755.196,627.208,704.075,627.208,639.994C627.208,575.913,576.087,524.792,512.006,524.792C447.925,524.792,396.804,575.913,396.804,639.994C396.804,704.075,447.925,755.196,512.006,755.196C512.006,755.196,512.006,755.196,512.006,755.196" class="atf-icon-location"/><glyph unicode="&#x0057;" d="M419.378,1024C445.08,1024,465.918,1003.162,465.918,977.459C465.918,951.757,445.08,930.918,419.378,930.918C419.378,930.918,419.378,930.918,419.378,930.918C419.378,930.918,186.674,930.918,186.674,930.918C160.92,930.918,140.082,910.08,140.082,884.378C140.082,884.378,140.082,884.378,140.082,884.378C140.082,884.378,140.082,139.622,140.082,139.622C140.082,113.92,160.92,93.082,186.674,93.082C186.674,93.082,186.674,93.082,186.674,93.082C186.674,93.082,419.378,93.082,419.378,93.082C445.08,93.082,465.918,72.243,465.918,46.541C465.918,20.838,445.08,0,419.378,0C419.378,0,419.378,0,419.378,0C419.378,0,186.674,0,186.674,0C109.515,0,47,62.515,47,139.622C47,139.622,47,139.622,47,139.622C47,139.622,47,884.378,47,884.378C47,961.485,109.515,1024,186.674,1024C186.674,1024,186.674,1024,186.674,1024C186.674,1024,419.378,1024,419.378,1024M712.293,731.085C730.469,749.261,759.909,749.261,778.085,731.085C778.085,731.085,778.085,731.085,778.085,731.085C778.085,731.085,964.299,544.922,964.299,544.922C967.064,542.157,969.47,539.034,971.518,535.603C971.826,535.091,972.133,534.579,972.389,534.016C972.901,533.043,973.413,532.07,973.874,531.046C974.283,530.125,974.642,529.203,975,528.333C975.256,527.565,975.512,526.848,975.768,526.08C976.075,525.056,976.331,524.083,976.587,523.059C976.843,522.138,976.997,521.267,977.202,520.346C978.174,514.816,978.174,509.184,977.202,503.654C976.997,502.733,976.843,501.862,976.587,500.941C976.331,499.917,976.075,498.944,975.768,497.92C975.512,497.152,975.256,496.435,975,495.667C974.642,494.797,974.283,493.875,973.874,492.954C973.413,491.93,972.901,490.957,972.389,489.984C972.133,489.421,971.826,488.909,971.518,488.397C970.341,486.451,969.112,484.608,967.678,482.867C967.678,482.867,964.299,479.078,964.299,479.078C964.299,479.078,778.085,292.915,778.085,292.915C759.909,274.739,730.469,274.739,712.293,292.915C694.117,311.091,694.117,340.531,712.293,358.707C712.293,358.707,712.293,358.707,712.293,358.707C712.293,358.707,818.994,465.459,818.994,465.459C818.994,465.459,372.837,465.459,372.837,465.459C348.978,465.459,329.266,483.43,326.603,506.573C326.603,506.573,326.296,512,326.296,512C326.296,537.702,347.134,558.541,372.837,558.541C372.837,558.541,372.837,558.541,372.837,558.541C372.837,558.541,818.942,558.592,818.942,558.592C818.942,558.592,712.293,665.293,712.293,665.293C695.602,681.933,694.219,708.096,708.094,726.323C708.094,726.323,712.293,731.085,712.293,731.085" class="atf-icon-logout"/><glyph unicode="&#x0058;" d="M884.378,931.337C961.28,931.337,1024,868.617,1024,791.714C1024,791.714,1024,233.174,1024,233.174C1024,156.271,961.28,93.5,884.378,93.5C884.378,93.5,139.674,93.5,139.674,93.5C62.72,93.5,0,156.271,0,233.174C0,233.174,0,791.714,0,791.714C0,868.617,62.72,931.337,139.674,931.337C139.674,931.337,884.378,931.337,884.378,931.337C884.378,931.337,884.378,931.337,884.378,931.337M930.867,702.268C930.867,702.268,538.726,427.734,538.726,427.734C522.701,416.521,501.35,416.521,485.325,427.734C485.325,427.734,485.325,427.734,485.325,427.734C485.325,427.734,93.082,702.268,93.082,702.268C93.082,702.268,93.082,233.174,93.082,233.174C93.082,207.676,114.176,186.633,139.674,186.633C139.674,186.633,884.378,186.633,884.378,186.633C909.875,186.633,930.918,207.676,930.918,233.174C930.918,233.174,930.867,702.268,930.867,702.268C930.867,702.268,930.867,702.268,930.867,702.268M884.378,838.255C884.378,838.255,139.674,838.255,139.674,838.255C121.6,838.255,105.728,827.657,98.048,812.45C98.048,812.45,512,522.71,512,522.71C512,522.71,925.952,812.45,925.952,812.45C918.272,827.657,902.451,838.255,884.378,838.255C884.378,838.255,884.378,838.255,884.378,838.255" class="atf-icon-mail"/><glyph unicode="&#x0059;" d="M281.6,281.6C281.6,281.6,281.6,0,281.6,0C281.6,0,0,0,0,0C0,0,0,281.6,0,281.6C0,281.6,281.6,281.6,281.6,281.6C281.6,281.6,281.6,281.6,281.6,281.6M1024,281.6C1024,281.6,1024,0,1024,0C1024,0,371.2,0,371.2,0C371.2,0,371.2,281.6,371.2,281.6C371.2,281.6,1024,281.6,1024,281.6C1024,281.6,1024,281.6,1024,281.6M281.6,652.8C281.6,652.8,281.6,371.2,281.6,371.2C281.6,371.2,0,371.2,0,371.2C0,371.2,0,652.8,0,652.8C0,652.8,281.6,652.8,281.6,652.8C281.6,652.8,281.6,652.8,281.6,652.8M1024,652.8C1024,652.8,1024,371.2,1024,371.2C1024,371.2,371.2,371.2,371.2,371.2C371.2,371.2,371.2,652.8,371.2,652.8C371.2,652.8,1024,652.8,1024,652.8C1024,652.8,1024,652.8,1024,652.8M281.6,1024C281.6,1024,281.6,742.4,281.6,742.4C281.6,742.4,0,742.4,0,742.4C0,742.4,0,1024,0,1024C0,1024,281.6,1024,281.6,1024C281.6,1024,281.6,1024,281.6,1024M1024,1024C1024,1024,1024,742.4,1024,742.4C1024,742.4,371.2,742.4,371.2,742.4C371.2,742.4,371.2,1024,371.2,1024C371.2,1024,1024,1024,1024,1024C1024,1024,1024,1024,1024,1024" class="atf-icon-menu"/><glyph unicode="&#x005a;" d="M930.922,281.009C931.536,305.892,914.231,326.27,891.139,329.496C842.703,335.896,795.189,347.723,749.313,364.773C732.212,371.224,712.961,367.077,700.161,354.482C700.161,354.482,640.717,295.14,640.717,295.14C625.868,280.292,602.828,277.168,584.549,287.562C460.081,358.219,357.065,461.081,286.305,585.294C275.86,603.573,278.984,626.562,293.883,641.41C293.883,641.41,353.122,700.547,353.122,700.547C365.974,713.501,370.07,732.752,363.618,749.904C346.517,795.575,334.69,843.038,328.341,890.911C325.064,914.156,305.045,931.308,281.134,931.104C281.134,931.104,140.793,931.104,140.793,931.104C127.686,931.052,115.142,925.574,106.284,915.846C97.426,906.169,93.074,893.215,94.2,880.927C108.793,743.863,155.488,612.123,230.753,496.103C298.901,389.093,389.833,298.314,497.457,230.064C612.812,155.362,744.091,108.769,879.926,94.024C893.033,92.846,906.038,97.249,915.767,106.107C925.495,115.016,930.973,127.56,930.922,140.923C930.922,140.923,930.922,281.009,930.922,281.009C930.922,281.009,930.922,281.009,930.922,281.009M1024.464,141.077C1024.668,101.653,1008.131,63.969,978.999,37.293C949.917,10.618,910.851,-2.541,870.659,1.094C719.412,17.479,574.156,69.089,446.871,151.471C328.085,226.838,227.322,327.396,152.006,445.67C68.958,573.672,17.297,719.389,1.066,871.762C-2.466,910.931,10.641,949.792,37.214,978.823C63.736,1007.905,101.317,1024.442,140.742,1024.494C140.742,1024.494,280.673,1024.494,280.673,1024.494C351.074,1025.159,411.133,973.651,421.066,903.558C426.544,862.239,436.631,821.637,451.223,782.673C470.474,731.472,458.186,673.769,419.427,634.652C419.427,634.652,385.891,601.166,385.891,601.166C440.931,515.047,514.148,441.932,600.422,387.045C600.422,387.045,634.163,420.684,634.163,420.684C673.127,459.136,730.932,471.475,782.133,452.275C821.25,437.683,861.955,427.545,903.786,422.066C974.135,412.133,1025.948,351.307,1024.464,280.497C1024.464,280.497,1024.464,141.077,1024.464,141.077C1024.464,141.077,1024.464,141.077,1024.464,141.077" class="atf-icon-phone"/><glyph unicode="&#x0061;" d="M512,1024C794.778,1024,1024,794.778,1024,512C1024,229.222,794.778,0,512,0C229.222,0,0,229.222,0,512C0,794.778,229.222,1024,512,1024C512,1024,512,1024,512,1024M512,930.918C280.627,930.918,93.082,743.373,93.082,512C93.082,280.627,280.627,93.082,512,93.082C743.373,93.082,930.918,280.627,930.918,512C930.918,743.373,743.373,930.918,512,930.918C512,930.918,512,930.918,512,930.918M444.723,736.922C444.723,736.922,724.019,550.707,724.019,550.707C751.616,532.326,751.616,491.674,724.019,473.293C724.019,473.293,444.723,287.078,444.723,287.078C413.798,266.445,372.378,288.666,372.378,325.837C372.378,325.837,372.378,698.163,372.378,698.163C372.378,735.334,413.798,757.555,444.723,736.922C444.723,736.922,444.723,736.922,444.723,736.922M465.459,611.226C465.459,611.226,465.459,412.774,465.459,412.774C465.459,412.774,614.246,512,614.246,512C614.246,512,465.459,611.226,465.459,611.226C465.459,611.226,465.459,611.226,465.459,611.226" class="atf-icon-play"/><glyph unicode="&#x0062;" d="M512,1024C794.764,1024,1024,794.764,1024,512C1024,229.236,794.764,0,512,0C229.236,0,0,229.236,0,512C0,794.764,229.236,1024,512,1024C512,1024,512,1024,512,1024M512,756.038C512,756.038,506.554,755.712,506.554,755.712C483.421,753.012,465.455,733.324,465.455,709.492C465.455,709.492,465.455,709.492,465.455,709.492C465.455,709.492,465.408,558.592,465.408,558.592C465.408,558.592,314.508,558.545,314.508,558.545C314.508,558.545,309.108,558.22,309.108,558.22C285.929,555.567,267.962,535.878,267.962,512C267.962,512,267.962,512,267.962,512C267.962,512,268.288,506.554,268.288,506.554C270.988,483.421,290.676,465.455,314.508,465.455C314.508,465.455,314.508,465.455,314.508,465.455C314.508,465.455,465.408,465.501,465.408,465.501C465.408,465.501,465.455,314.508,465.455,314.508C465.455,314.508,465.78,309.108,465.78,309.108C468.433,285.929,488.122,267.962,512,267.962C512,267.962,512,267.962,512,267.962C512,267.962,517.446,268.288,517.446,268.288C540.579,270.988,558.545,290.676,558.545,314.508C558.545,314.508,558.545,314.508,558.545,314.508C558.545,314.508,558.499,465.501,558.499,465.501C558.499,465.501,709.492,465.455,709.492,465.455C709.492,465.455,714.892,465.78,714.892,465.78C738.071,468.433,756.038,488.122,756.038,512C756.038,512,756.038,512,756.038,512C756.038,512,755.712,517.446,755.712,517.446C753.012,540.579,733.324,558.545,709.492,558.545C709.492,558.545,709.492,558.545,709.492,558.545C709.492,558.545,558.499,558.592,558.499,558.592C558.499,558.592,558.545,709.492,558.545,709.492C558.545,709.492,558.22,714.892,558.22,714.892C555.567,738.071,535.878,756.038,512,756.038C512,756.038,512,756.038,512,756.038C512,756.038,512,756.038,512,756.038" class="atf-icon-plus"/><glyph unicode="&#x0063;" d="M512,1024C794.778,1024,1024,794.778,1024,512C1024,229.222,794.778,0,512,0C229.222,0,0,229.222,0,512C0,794.778,229.222,1024,512,1024C512,1024,512,1024,512,1024M512,930.918C280.627,930.918,93.082,743.373,93.082,512C93.082,280.627,280.627,93.082,512,93.082C743.373,93.082,930.918,280.627,930.918,512C930.918,743.373,743.373,930.918,512,930.918C512,930.918,512,930.918,512,930.918M499.507,366.797C527.309,366.797,549.786,341.965,549.786,311.398C549.786,280.781,527.309,256,499.507,256C471.757,256,449.28,280.781,449.28,311.398C449.28,341.965,471.757,366.797,499.507,366.797C499.507,366.797,499.507,366.797,499.507,366.797M504.627,767.949C534.528,768.461,564.224,762.214,591.872,749.517C615.27,739.174,635.085,720.947,648.499,697.446C677.325,647.27,669.03,581.581,628.941,542.003C616.499,529.05,603.238,517.171,589.261,506.47C579.123,498.278,569.19,489.677,559.258,481.075C552.602,474.624,547.584,466.483,544.563,457.318C542.054,450.458,539.546,443.904,537.139,437.658C532.07,423.168,519.424,413.645,505.395,413.696C496.333,412.518,487.117,414.669,479.283,419.84C466.227,428.8,458.701,444.979,459.674,461.926C460.186,482.458,467.661,502.067,480.563,516.915C495.616,533.862,511.949,549.325,529.459,563.2C542.464,573.645,553.677,586.547,562.586,601.395C574.771,623.718,570.982,660.275,550.144,676.454C542.618,682.24,534.016,686.08,525.005,687.718C511.181,690.534,496.896,689.664,483.482,685.158C468.736,679.373,456.806,667.085,450.56,651.264C445.184,639.898,440.474,628.122,434.33,617.267C424.704,600.832,406.528,593.203,389.478,598.426C381.952,599.757,374.989,603.546,369.408,609.28C361.933,617.267,357.939,628.48,358.451,640C358.707,659.763,364.339,679.066,374.63,695.296C391.936,722.688,416.512,743.526,445.03,754.842C464.026,763.034,484.198,767.488,504.627,767.949C504.627,767.949,504.627,767.949,504.627,767.949" class="atf-icon-question"/><glyph unicode="&#x0064;" d="M435.695,1024C676.024,1024,870.889,829.135,870.889,588.805C870.889,487.072,836.022,393.531,777.553,319.446C777.553,319.446,1009.486,87.41,1009.486,87.41C1029.505,67.442,1029.505,34.982,1009.486,15.014C989.518,-5.005,957.058,-5.005,937.09,15.014C937.09,15.014,937.09,15.014,937.09,15.014C937.09,15.014,705.054,246.947,705.054,246.947C630.969,188.478,537.428,153.611,435.695,153.611C195.365,153.611,0.5,348.476,0.5,588.805C0.5,829.135,195.365,1024,435.695,1024C435.695,1024,435.695,1024,435.695,1024M435.695,921.601C251.889,921.601,102.899,772.611,102.899,588.805C102.899,405,251.889,256.01,435.695,256.01C526.317,256.01,608.544,292.259,668.549,351.036C668.549,351.036,670.853,353.647,670.853,353.647C671.672,354.466,672.543,355.285,673.362,356.002C732.241,415.956,768.49,498.183,768.49,588.805C768.49,772.611,619.5,921.601,435.695,921.601C435.695,921.601,435.695,921.601,435.695,921.601" class="atf-icon-search"/><glyph unicode="&#x0065;" d="M307.091,205.296C363.41,205.296,409.438,159.217,409.438,102.898C409.438,46.579,363.41,0.5,307.091,0.5C250.772,0.5,205.256,46.579,205.256,102.898C205.256,159.217,250.772,205.296,307.091,205.296C307.091,205.296,307.091,205.296,307.091,205.296M818.875,205.296C875.194,205.296,921.273,159.217,921.273,102.898C921.273,46.579,875.194,0.5,818.875,0.5C762.608,0.5,717.041,46.579,717.041,102.898C717.041,159.217,762.608,205.296,818.875,205.296C818.875,205.296,818.875,205.296,818.875,205.296M167.369,1024.478C167.369,1024.478,215.496,922.08,215.496,922.08C215.496,922.08,972.933,922.08,972.933,922.08C1011.844,922.08,1036.419,880.097,1017.476,846.306C1017.476,846.306,1017.476,846.306,1017.476,846.306C1017.476,846.306,834.235,514.025,834.235,514.025C816.827,482.282,783.087,461.29,744.688,461.29C744.688,461.29,744.688,461.29,744.688,461.29C744.688,461.29,363.41,461.29,363.41,461.29C363.41,461.29,307.091,358.892,307.091,358.892C307.091,358.892,921.273,358.892,921.273,358.892C921.273,358.892,921.273,256.495,921.273,256.495C921.273,256.495,307.091,256.495,307.091,256.495C229.32,256.495,180.169,339.949,217.544,408.555C217.544,408.555,217.544,408.555,217.544,408.555C217.544,408.555,286.611,533.481,286.611,533.481C286.611,533.481,102.347,922.08,102.347,922.08C102.347,922.08,0,922.08,0,922.08C0,922.08,0,1024.478,0,1024.478C0,1024.478,167.369,1024.478,167.369,1024.478C167.369,1024.478,167.369,1024.478,167.369,1024.478M885.946,819.682C885.946,819.682,264.084,819.682,264.084,819.682C264.084,819.682,385.374,563.688,385.374,563.688C385.374,563.688,744.688,563.688,744.688,563.688C744.688,563.688,885.946,819.682,885.946,819.682C885.946,819.682,885.946,819.682,885.946,819.682" class="atf-icon-shopping-cart"/><glyph unicode="&#x0066;" d="M589.004,0C589.004,0,382.617,0,382.617,0C382.617,0,382.617,512.051,382.617,512.051C382.617,512.051,279.5,512.051,279.5,512.051C279.5,512.051,279.5,688.486,279.5,688.486C279.5,688.486,382.617,688.486,382.617,688.486C382.617,688.486,382.617,794.419,382.617,794.419C382.617,938.342,440.831,1024,606.258,1024C606.258,1024,743.986,1024,743.986,1024C743.986,1024,743.986,847.514,743.986,847.514C743.986,847.514,657.919,847.514,657.919,847.514C593.51,847.514,589.26,822.835,589.26,776.806C589.26,776.806,588.953,688.486,588.953,688.486C588.953,688.486,744.959,688.486,744.959,688.486C744.959,688.486,726.681,512.051,726.681,512.051C726.681,512.051,588.953,512.051,588.953,512.051C588.953,512.051,588.953,0,588.953,0C588.953,0,589.004,0,589.004,0C589.004,0,589.004,0,589.004,0" class="atf-icon-social-facebook-stroke"/><glyph unicode="&#x0067;" d="M512,1024C794.795,1024,1024,794.795,1024,512C1024,229.205,794.795,0,512,0C229.205,0,0,229.205,0,512C0,794.795,229.205,1024,512,1024C512,1024,512,1024,512,1024M639.488,793.6C639.488,793.6,563.712,793.6,563.712,793.6C472.747,793.6,440.718,746.496,440.718,667.364C440.718,667.364,440.718,667.364,440.718,667.364C440.718,667.364,440.718,609.052,440.718,609.052C440.718,609.052,384,609.052,384,609.052C384,609.052,384,512.057,384,512.057C384,512.057,440.718,512.057,440.718,512.057C440.718,512.057,440.718,230.4,440.718,230.4C440.718,230.4,554.212,230.4,554.212,230.4C554.212,230.4,554.212,512.057,554.212,512.057C554.212,512.057,629.988,512.057,629.988,512.057C629.988,512.057,640,609.052,640,609.052C640,609.052,554.212,609.052,554.212,609.052C554.212,609.052,554.382,657.636,554.382,657.636C554.382,682.951,556.715,696.548,592.156,696.548C592.156,696.548,592.156,696.548,592.156,696.548C592.156,696.548,639.488,696.548,639.488,696.548C639.488,696.548,639.488,793.6,639.488,793.6C639.488,793.6,639.488,793.6,639.488,793.6" class="atf-icon-social-faebook"/><glyph unicode="&#x0068;" d="M723.083,1020.979C777.562,1018.47,814.786,1009.817,847.351,997.17C881.042,984.113,909.613,966.602,938.082,938.133C966.551,909.665,984.011,881.094,997.119,847.454C1009.766,814.838,1018.419,777.664,1020.928,723.134C1021.44,712.125,1021.849,702.602,1022.208,693.283C1022.208,693.283,1022.618,682.172,1022.618,682.172C1023.539,654.113,1023.898,623.289,1024,554.319C1024,554.319,1024,484.018,1024,484.018C1023.949,404.91,1023.59,371.782,1022.618,341.879C1022.618,341.879,1022.003,325.136,1022.003,325.136C1021.696,317.609,1021.337,309.724,1020.928,300.917C1018.419,246.438,1009.766,209.214,997.119,176.649C984.011,142.958,966.551,114.387,938.082,85.969C909.613,57.5,881.042,39.989,847.351,26.881C814.786,14.234,777.562,5.581,723.083,3.072C714.276,2.663,706.391,2.355,698.864,2.048C698.864,2.048,682.121,1.382,682.121,1.382C654.062,0.461,623.238,0.102,554.268,0.051C554.268,0.051,483.967,0,483.967,0C404.859,0.102,371.731,0.41,341.828,1.382C341.828,1.382,330.717,1.792,330.717,1.792C321.398,2.151,311.875,2.56,300.866,3.072C246.387,5.581,209.162,14.234,176.598,26.881C142.906,39.989,114.335,57.5,85.867,85.969C57.449,114.387,39.938,142.958,26.83,176.649C14.183,209.214,5.53,246.438,3.021,300.917C1.126,343.16,0.307,363.129,0.051,434.3C0.051,434.3,0,575.824,0,575.824C0.154,626.156,0.461,653.191,1.178,676.744C1.178,676.744,1.485,686.678,1.485,686.678C1.894,698.147,2.407,709.463,3.021,723.134C5.53,777.664,14.183,814.838,26.83,847.454C39.938,881.094,57.449,909.665,85.867,938.133C114.335,966.602,142.906,984.113,176.598,997.17C209.162,1009.817,246.387,1018.47,300.866,1020.979C312.592,1021.491,322.576,1021.952,332.407,1022.31C332.407,1022.31,342.289,1022.669,342.289,1022.669C365.023,1023.437,389.754,1023.795,435.273,1023.949C435.273,1023.949,575.722,1024,575.722,1024C658.465,1023.795,678.229,1023.027,723.083,1020.979C723.083,1020.979,723.083,1020.979,723.083,1020.979M579.511,931.733C579.511,931.733,458.621,931.784,458.621,931.784C369.631,931.579,351.045,930.914,305.065,928.814C255.142,926.562,228.056,918.216,209.982,911.201C186.121,901.882,169.02,890.822,151.099,872.901C133.229,854.98,122.118,837.93,112.799,814.018C105.836,795.944,97.49,768.858,95.186,718.935C93.189,675.515,92.472,656.519,92.267,579.562C92.267,579.562,92.267,458.673,92.267,458.673C92.421,369.682,93.086,351.147,95.186,305.116C97.49,255.194,105.836,228.107,112.799,210.033C122.118,186.173,133.229,169.122,151.099,151.201C169.02,133.28,186.121,122.169,209.982,112.902C228.056,105.887,255.142,97.541,305.065,95.237C350.635,93.189,369.273,92.472,456.317,92.318C456.317,92.318,553.295,92.267,553.295,92.267C617.964,92.369,648.224,92.677,674.696,93.496C674.696,93.496,686.729,93.854,686.729,93.854C696.764,94.264,706.903,94.725,718.884,95.237C768.806,97.541,795.893,105.887,813.967,112.902C837.879,122.169,854.929,133.28,872.85,151.201C890.72,169.122,901.831,186.173,911.15,210.033C918.164,228.107,926.459,255.194,928.763,305.116C930.76,349.15,931.477,368.044,931.682,447.459C931.682,447.459,931.733,470.705,931.733,470.705C931.733,470.705,931.733,553.346,931.733,553.346C931.733,553.346,931.733,553.346,931.733,553.346C931.733,553.346,931.682,576.592,931.682,576.592C931.477,656.058,930.76,674.952,928.763,718.935C926.459,768.858,918.164,795.944,911.15,814.018C901.831,837.93,890.72,854.98,872.85,872.901C854.929,890.822,837.879,901.882,813.967,911.201C795.893,918.216,768.806,926.562,718.884,928.814C675.464,930.811,656.468,931.528,579.511,931.733C579.511,931.733,579.511,931.733,579.511,931.733M512.998,774.132C658.311,774.132,776.128,656.314,776.128,511.002C776.128,365.689,658.311,247.872,512.998,247.872C367.686,247.872,249.868,365.689,249.868,511.002C249.868,656.314,367.686,774.132,512.998,774.132C512.998,774.132,512.998,774.132,512.998,774.132M512.998,681.813C418.683,681.813,342.187,605.368,342.187,511.002C342.187,416.686,418.683,340.241,512.998,340.241C607.314,340.241,683.81,416.686,683.81,511.002C683.81,605.368,607.314,681.813,512.998,681.813C512.998,681.813,512.998,681.813,512.998,681.813M784.27,847.3C817.91,847.3,845.201,820.009,845.201,786.318C845.201,752.678,817.91,725.387,784.27,725.387C750.578,725.387,723.287,752.678,723.287,786.318C723.287,820.009,750.578,847.3,784.27,847.3C784.27,847.3,784.27,847.3,784.27,847.3" class="atf-icon-social-instagram-stroke"/><glyph unicode="&#x0069;" d="M512,1024C794.795,1024,1024,794.795,1024,512C1024,229.205,794.795,0,512,0C229.205,0,0,229.205,0,512C0,794.795,229.205,1024,512,1024C512,1024,512,1024,512,1024M567.694,819.086C567.694,819.086,456.306,819.086,456.306,819.086C434.574,818.972,421.66,818.745,409.543,818.347C409.543,818.347,409.543,818.347,409.543,818.347C409.543,818.347,400.327,818.005,400.327,818.005C395.662,817.835,390.827,817.607,385.365,817.38C352.654,815.844,330.297,810.667,310.784,803.044C290.588,795.193,273.465,784.725,256.341,767.659C239.275,750.535,228.75,733.412,220.9,713.216C213.333,693.703,208.156,671.346,206.62,638.635C206.393,633.173,206.165,628.338,205.995,623.673C205.995,623.673,205.995,623.673,205.995,623.673C205.995,623.673,205.653,614.457,205.653,614.457C205.198,600.633,204.971,585.728,204.857,557.852C204.857,557.852,204.914,456.306,204.914,456.306C205.028,434.574,205.255,421.66,205.653,409.543C205.653,409.543,205.653,409.543,205.653,409.543C205.653,409.543,205.995,400.327,205.995,400.327C206.165,395.662,206.393,390.827,206.62,385.365C208.156,352.654,213.333,330.297,220.9,310.784C228.75,290.588,239.275,273.465,256.341,256.341C273.465,239.275,290.588,228.75,310.784,220.9C330.297,213.333,352.654,208.156,385.365,206.62C390.827,206.393,395.662,206.165,400.327,205.995C400.327,205.995,400.327,205.995,400.327,205.995C400.327,205.995,409.543,205.653,409.543,205.653C426.496,205.084,444.985,204.857,486.741,204.8C486.741,204.8,549.092,204.857,549.092,204.857C582.713,204.914,599.211,205.141,614.457,205.653C614.457,205.653,614.457,205.653,614.457,205.653C614.457,205.653,623.673,205.995,623.673,205.995C628.338,206.165,633.173,206.393,638.635,206.62C671.346,208.156,693.703,213.333,713.216,220.9C733.412,228.75,750.535,239.275,767.659,256.341C784.725,273.465,795.193,290.588,803.044,310.784C810.667,330.297,815.844,352.654,817.38,385.365C817.607,390.827,817.835,395.662,818.005,400.327C818.005,400.327,818.005,400.327,818.005,400.327C818.005,400.327,818.347,409.543,818.347,409.543C818.916,426.496,819.143,444.985,819.2,486.741C819.2,486.741,819.143,549.092,819.143,549.092C819.086,582.713,818.859,599.211,818.347,614.457C818.347,614.457,818.347,614.457,818.347,614.457C818.347,614.457,818.005,623.673,818.005,623.673C817.835,628.338,817.607,633.173,817.38,638.635C815.844,671.346,810.667,693.703,803.044,713.216C795.193,733.412,784.725,750.535,767.659,767.659C750.535,784.725,733.412,795.193,713.216,803.044C693.703,810.667,671.346,815.844,638.635,817.38C633.173,817.607,628.338,817.835,623.673,818.005C623.673,818.005,623.673,818.005,623.673,818.005C623.673,818.005,614.457,818.347,614.457,818.347C600.633,818.802,585.728,819.029,557.852,819.143C557.852,819.143,567.694,819.086,567.694,819.086M512,763.847C512,763.847,525.028,763.847,525.028,763.847C525.028,763.847,525.028,763.847,525.028,763.847C525.028,763.847,556.999,763.79,556.999,763.79C584.306,763.676,598.812,763.506,612.352,763.051C612.352,763.051,621.397,762.709,621.397,762.709C625.948,762.539,630.727,762.311,636.132,762.084C666.112,760.718,682.325,755.712,693.191,751.502C707.527,745.927,717.767,739.271,728.519,728.519C739.271,717.767,745.927,707.527,751.502,693.191C755.712,682.325,760.718,666.112,762.084,636.132C762.311,630.727,762.539,625.948,762.709,621.397C762.709,621.397,763.051,612.352,763.051,612.352C763.506,598.812,763.676,584.306,763.79,556.999C763.79,556.999,763.847,525.028,763.847,525.028C763.847,520.875,763.847,516.551,763.847,512C763.847,512,763.847,498.972,763.847,498.972C763.847,498.972,763.847,498.972,763.847,498.972C763.847,498.972,763.79,467.001,763.79,467.001C763.676,439.694,763.506,425.188,763.051,411.648C763.051,411.648,762.709,402.603,762.709,402.603C762.539,398.052,762.311,393.273,762.084,387.868C760.718,357.888,755.712,341.675,751.502,330.809C745.927,316.473,739.271,306.233,728.519,295.481C717.767,284.729,707.527,278.073,693.191,272.498C682.325,268.288,666.112,263.282,636.132,261.916C610.93,260.779,599.495,260.324,556.999,260.21C556.999,260.21,525.028,260.153,525.028,260.153C520.875,260.153,516.551,260.153,512,260.153C512,260.153,498.972,260.153,498.972,260.153C498.972,260.153,498.972,260.153,498.972,260.153C498.972,260.153,467.001,260.21,467.001,260.21C424.505,260.324,413.07,260.779,387.868,261.916C357.888,263.282,341.675,268.288,330.809,272.498C316.473,278.073,306.233,284.729,295.481,295.481C284.729,306.233,278.073,316.473,272.498,330.809C268.288,341.675,263.282,357.888,261.916,387.868C260.779,413.07,260.324,424.562,260.21,467.001C260.21,467.001,260.153,498.972,260.153,498.972C260.153,503.125,260.153,507.449,260.153,512C260.153,512,260.153,525.028,260.153,525.028C260.153,525.028,260.153,525.028,260.153,525.028C260.153,525.028,260.21,556.999,260.21,556.999C260.324,599.438,260.779,610.93,261.916,636.132C263.282,666.112,268.288,682.325,272.498,693.191C278.073,707.527,284.729,717.767,295.481,728.519C306.233,739.271,316.473,745.927,330.809,751.502C341.675,755.712,357.888,760.718,387.868,762.084C393.273,762.311,398.052,762.539,402.603,762.709C402.603,762.709,411.648,763.051,411.648,763.051C425.188,763.506,439.694,763.676,467.001,763.79C467.001,763.79,498.972,763.847,498.972,763.847C503.125,763.847,507.449,763.847,512,763.847C512,763.847,512,763.847,512,763.847M512.626,669.241C425.415,669.241,354.759,598.585,354.759,511.374C354.759,424.22,425.415,353.508,512.626,353.508C599.78,353.508,670.492,424.22,670.492,511.374C670.492,598.585,599.78,669.241,512.626,669.241C512.626,669.241,512.626,669.241,512.626,669.241M512.626,613.888C569.23,613.888,615.083,567.979,615.083,511.374C615.083,454.77,569.23,408.917,512.626,408.917C456.021,408.917,410.112,454.77,410.112,511.374C410.112,567.979,456.021,613.888,512.626,613.888C512.626,613.888,512.626,613.888,512.626,613.888M675.328,713.159C655.132,713.159,638.805,696.775,638.805,676.58C638.805,656.384,655.132,640,675.328,640C695.524,640,711.908,656.384,711.908,676.58C711.908,696.775,695.524,713.159,675.328,713.159C675.328,713.159,675.328,713.159,675.328,713.159" class="atf-icon-social-instagram"/><glyph unicode="&#x006a;" d="M512,1024C794.795,1024,1024,794.795,1024,512C1024,229.205,794.795,0,512,0C229.205,0,0,229.205,0,512C0,794.795,229.205,1024,512,1024C512,1024,512,1024,512,1024M713.33,716.8C713.33,716.8,310.67,716.8,310.67,716.8C310.67,716.8,204.8,716.8,204.8,609.109C204.8,609.109,204.8,385.65,204.8,385.65C204.8,385.65,204.8,277.959,310.67,277.959C310.67,277.959,713.33,277.959,713.33,277.959C713.33,277.959,819.2,277.959,819.2,385.65C819.2,385.65,819.2,609.109,819.2,609.109C819.2,609.109,819.2,716.8,713.33,716.8C713.33,716.8,713.33,716.8,713.33,716.8M430.137,617.244C430.137,617.244,631.296,497.038,631.296,497.038C631.296,497.038,430.137,376.889,430.137,376.889C430.137,376.889,430.137,617.244,430.137,617.244C430.137,617.244,430.137,617.244,430.137,617.244" class="atf-icon-social-youtube"/><glyph unicode="&#x006b;" d="M512,191.842C512,191.842,195.573,25.5,195.573,25.5C195.573,25.5,256.027,377.833,256.027,377.833C256.027,377.833,0,627.346,0,627.346C0,627.346,353.787,678.756,353.787,678.756C353.787,678.756,512,999.328,512,999.328C512,999.328,670.213,678.756,670.213,678.756C670.213,678.756,1024,627.346,1024,627.346C1024,627.346,767.973,377.833,767.973,377.833C767.973,377.833,828.427,25.5,828.427,25.5C828.427,25.5,512,191.842,512,191.842" class="atf-icon-star"/><glyph unicode="&#x006c;" d="M605.545,1024C682.671,1024,745.182,961.489,745.182,884.364C745.182,884.364,745.182,884.364,745.182,884.364C745.182,884.364,745.182,837.818,745.182,837.818C745.182,837.818,931.364,837.818,931.364,837.818C955.241,837.818,974.93,819.852,977.583,796.719C977.583,796.719,977.909,791.273,977.909,791.273C977.909,765.58,957.057,744.727,931.364,744.727C931.364,744.727,931.364,744.727,931.364,744.727C931.364,744.727,884.818,744.727,884.818,744.727C884.818,744.727,884.818,139.636,884.818,139.636C884.818,65.257,826.683,4.468,753.374,0.233C753.374,0.233,745.182,0,745.182,0C745.182,0,279.727,0,279.727,0C202.601,0,140.091,62.511,140.091,139.636C140.091,139.636,140.091,139.636,140.091,139.636C140.091,139.636,140.091,744.727,140.091,744.727C140.091,744.727,93.545,744.727,93.545,744.727C69.668,744.727,49.979,762.694,47.326,785.827C47.326,785.827,47,791.273,47,791.273C47,816.966,67.852,837.818,93.545,837.818C93.545,837.818,93.545,837.818,93.545,837.818C93.545,837.818,279.727,837.818,279.727,837.818C279.727,837.818,279.727,884.364,279.727,884.364C279.727,958.743,337.863,1019.532,411.172,1023.767C411.172,1023.767,419.364,1024,419.364,1024C419.364,1024,605.545,1024,605.545,1024M791.727,744.727C791.727,744.727,233.182,744.727,233.182,744.727C233.182,744.727,233.182,139.636,233.182,139.636C233.182,115.759,251.148,96.07,274.281,93.417C274.281,93.417,279.727,93.091,279.727,93.091C279.727,93.091,745.182,93.091,745.182,93.091C770.875,93.091,791.727,113.943,791.727,139.636C791.727,139.636,791.727,139.636,791.727,139.636C791.727,139.636,791.727,744.727,791.727,744.727C791.727,744.727,791.727,744.727,791.727,744.727M419.364,605.091C445.057,605.091,465.909,584.239,465.909,558.545C465.909,558.545,465.909,558.545,465.909,558.545C465.909,558.545,465.909,279.273,465.909,279.273C465.909,253.58,445.057,232.727,419.364,232.727C393.671,232.727,372.818,253.58,372.818,279.273C372.818,279.273,372.818,279.273,372.818,279.273C372.818,279.273,372.818,558.545,372.818,558.545C372.818,584.239,393.671,605.091,419.364,605.091C419.364,605.091,419.364,605.091,419.364,605.091M605.545,605.091C631.239,605.091,652.091,584.239,652.091,558.545C652.091,558.545,652.091,558.545,652.091,558.545C652.091,558.545,652.091,279.273,652.091,279.273C652.091,253.58,631.239,232.727,605.545,232.727C579.852,232.727,559,253.58,559,279.273C559,279.273,559,279.273,559,279.273C559,279.273,559,558.545,559,558.545C559,584.239,579.852,605.091,605.545,605.091C605.545,605.091,605.545,605.091,605.545,605.091M605.545,930.909C605.545,930.909,419.364,930.909,419.364,930.909C393.671,930.909,372.818,910.057,372.818,884.364C372.818,884.364,372.818,884.364,372.818,884.364C372.818,884.364,372.818,837.818,372.818,837.818C372.818,837.818,652.091,837.818,652.091,837.818C652.091,837.818,652.091,884.364,652.091,884.364C652.091,908.241,634.124,927.93,610.991,930.583C610.991,930.583,605.545,930.909,605.545,930.909C605.545,930.909,605.545,930.909,605.545,930.909" class="atf-icon-trash"/><glyph unicode="&#x006d;" d="M511.978,973.081C558.876,973.081,602.395,947.993,626.817,906.676C626.817,906.676,1005.997,257.78,1005.997,257.78C1029.855,215.49,1030.009,163.37,1006.406,120.926C982.752,78.482,938.977,52.063,890.799,51.5C890.799,51.5,132.645,51.5,132.645,51.5C84.979,52.063,41.204,78.482,17.55,120.926C-6.053,163.37,-5.899,215.49,18.318,258.446C18.318,258.446,397.139,906.676,397.139,906.676C421.561,947.993,465.08,973.081,511.978,973.081C511.978,973.081,511.978,973.081,511.978,973.081M511.978,881.383C496.362,881.383,481.924,873.038,473.784,859.419C473.784,859.419,95.424,211.957,95.424,211.957C87.488,197.827,87.437,180.47,95.27,166.339C103.155,152.157,117.746,143.351,133.157,143.197C133.157,143.197,890.287,143.197,890.287,143.197C906.21,143.351,920.802,152.157,928.686,166.339C936.52,180.47,936.468,197.827,928.891,211.292C928.891,211.292,550.224,859.317,550.224,859.317C542.134,873.038,527.594,881.383,511.978,881.383C511.978,881.383,511.978,881.383,511.978,881.383M480.337,359.001C497.796,376.869,526.16,376.869,543.619,359.001C561.078,341.081,561.078,312.051,543.619,294.132C526.16,276.263,497.796,276.263,480.337,294.132C462.878,312.051,462.878,341.081,480.337,359.001C480.337,359.001,480.337,359.001,480.337,359.001M511.978,693.33C536.656,693.33,556.726,672.799,556.726,647.455C556.726,647.455,556.726,647.455,556.726,647.455C556.726,647.455,556.726,464.112,556.726,464.112C556.726,438.769,536.656,418.238,511.978,418.238C487.3,418.238,467.23,438.769,467.23,464.112C467.23,464.112,467.23,464.112,467.23,464.112C467.23,464.112,467.23,647.455,467.23,647.455C467.23,672.799,487.3,693.33,511.978,693.33C511.978,693.33,511.978,693.33,511.978,693.33" class="atf-icon-warning"/><glyph unicode="&#x006e;" d="M512,1024C794.764,1024,1024,794.764,1024,512C1024,229.236,794.764,0,512,0C229.236,0,0,229.236,0,512C0,794.764,229.236,1024,512,1024C512,1024,512,1024,512,1024M512,930.909C280.623,930.909,93.091,743.377,93.091,512C93.091,280.623,280.623,93.091,512,93.091C743.377,93.091,930.909,280.623,930.909,512C930.909,743.377,743.377,930.909,512,930.909C512,930.909,512,930.909,512,930.909M339.456,684.544C357.609,702.743,387.119,702.743,405.271,684.544C405.271,684.544,405.271,684.544,405.271,684.544C405.271,684.544,512,577.862,512,577.862C512,577.862,618.729,684.544,618.729,684.544C635.485,701.347,661.923,702.604,680.169,688.407C680.169,688.407,684.544,684.544,684.544,684.544C702.743,666.391,702.743,636.881,684.544,618.729C684.544,618.729,684.544,618.729,684.544,618.729C684.544,618.729,577.862,512,577.862,512C577.862,512,684.544,405.271,684.544,405.271C701.347,388.515,702.604,362.077,688.407,343.831C688.407,343.831,684.544,339.456,684.544,339.456C666.391,321.257,636.881,321.257,618.729,339.456C618.729,339.456,618.729,339.456,618.729,339.456C618.729,339.456,512,446.138,512,446.138C512,446.138,405.271,339.456,405.271,339.456C388.515,322.653,362.077,321.396,343.831,335.593C343.831,335.593,339.456,339.456,339.456,339.456C321.257,357.609,321.257,387.119,339.456,405.271C339.456,405.271,339.456,405.271,339.456,405.271C339.456,405.271,446.138,512,446.138,512C446.138,512,339.456,618.729,339.456,618.729C322.653,635.485,321.396,661.923,335.593,680.169C335.593,680.169,339.456,684.544,339.456,684.544" class="atf-icon-x-circle"/><glyph unicode="&#x006f;" d="M1024,920.883C1024,920.883,920.883,1024,920.883,1024C920.883,1024,512,615.168,512,615.168C512,615.168,103.117,1024,103.117,1024C103.117,1024,0,920.883,0,920.883C0,920.883,408.883,512,408.883,512C408.883,512,0,103.168,0,103.168C0,103.168,103.117,0,103.117,0C103.117,0,512,408.883,512,408.883C512,408.883,920.883,0,920.883,0C920.883,0,1024,103.168,1024,103.168C1024,103.168,615.117,512,615.117,512C615.117,512,1024,920.883,1024,920.883" class="atf-icon-x"/></font>
</defs>
</svg>
